<?xml version="1.0" encoding="utf-8"?>
<!DOCTYPE svg PUBLIC "-//W3C//DTD SVG 20010904//EN" "http://www.w3.org/TR/2001/REC-SVG-20010904/DTD/svg10.dtd">
<svg version="1.0" xmlns="http://www.w3.org/2000/svg" width="120pt" height="122pt" viewBox="0 0 120 122" style="" preserveAspectRatio="xMidYMid meet">
<g fill="#00000019" stroke="#00000019">
<path d="M 9.112 3.418 C 7.310 4.747 4.747 7.310 3.418 9.112 L 1.000 12.389 1.000 60.044 L 1.000 107.700 3.910 111.717 C 5.517 113.936 8.793 116.690 11.226 117.867 C 15.520 119.946 16.755 120.000 60.000 120.000 C 103.245 120.000 104.480 119.946 108.774 117.867 C 111.207 116.690 114.483 113.936 116.090 111.717 L 119.000 107.700 119.000 60.044 L 119.000 12.389 116.582 9.112 C 115.253 7.310 112.690 4.747 110.888 3.418 L 107.611 1.000 60.000 1.000 L 12.389 1.000 9.112 3.418 M 105.282 3.352 C 109.702 5.209 114.657 10.532 116.519 15.423 C 117.852 18.923 118.031 25.538 117.786 62.165 L 117.500 104.830 114.456 109.165 C 112.781 111.549 109.406 114.625 106.956 116.000 L 102.500 118.500 60.000 118.500 L 17.500 118.500 13.044 116.000 C 10.594 114.625 7.219 111.549 5.544 109.165 L 2.500 104.830 2.193 62.665 C 1.983 33.730 2.237 19.304 3.002 16.688 C 4.334 12.136 10.320 5.212 14.500 3.388 C 18.939 1.450 100.681 1.419 105.282 3.352 "/></g>
<g fill="#FDEF00FF" stroke="#FDEF00FF">
<path d="M 18.170 3.967 C 13.556 5.094 8.012 9.836 5.289 14.986 C 3.013 19.289 3.000 19.549 3.000 59.543 L 3.000 99.772 5.784 105.101 C 8.038 109.416 9.584 110.962 13.899 113.216 L 19.228 116.000 59.918 116.000 L 100.607 116.000 105.611 113.507 C 110.989 110.827 113.964 107.505 115.828 102.101 C 116.647 99.726 117.000 86.834 117.000 59.319 C 117.000 16.817 116.985 16.680 111.532 10.214 C 105.759 3.366 106.854 3.519 62.000 3.326 C 39.725 3.231 20.001 3.519 18.170 3.967 M 41.150 40.080 C 46.677 43.038 46.547 52.631 40.941 55.530 C 35.334 58.430 30.362 56.702 28.016 51.040 C 24.875 43.457 33.700 36.093 41.150 40.080 M 90.923 41.589 C 93.276 43.569 94.000 44.999 94.000 47.666 C 94.000 52.311 89.479 57.000 85.000 57.000 C 80.698 57.000 76.000 52.302 76.000 48.000 C 76.000 45.848 76.928 43.918 78.923 41.923 C 82.650 38.197 86.756 38.082 90.923 41.589 M 27.403 58.138 C 32.611 60.510 32.696 68.188 27.552 71.558 C 20.198 76.377 12.188 65.721 18.455 59.455 C 21.149 56.761 23.591 56.401 27.403 58.138 M 102.611 59.342 C 109.151 64.968 102.280 75.883 94.729 71.861 C 89.469 69.059 88.443 63.466 92.455 59.455 C 95.541 56.368 99.107 56.328 102.611 59.342 M 45.620 76.671 C 48.005 78.234 48.600 78.230 54.835 76.620 C 60.934 75.044 61.871 75.029 65.876 76.449 C 71.414 78.412 74.411 78.414 76.036 76.457 C 76.740 75.609 78.027 75.051 78.897 75.219 C 80.189 75.467 80.048 75.952 78.122 77.878 C 76.018 79.982 75.223 80.154 70.634 79.498 C 64.359 78.600 56.922 78.611 51.237 79.526 C 46.951 80.216 42.000 78.314 42.000 75.977 C 42.000 74.616 42.684 74.747 45.620 76.671 M 64.000 66.878 C 64.000 68.769 60.866 70.405 59.226 69.371 C 56.174 67.446 56.685 66.000 60.417 66.000 C 62.388 66.000 64.000 66.395 64.000 66.878 "/></g>
<g fill="#000000FF" stroke="#000000FF">
<path d="M 34.250 41.392 C 36.414 43.035 36.496 45.343 34.450 47.042 C 32.163 48.940 29.233 45.892 30.560 42.994 C 31.417 41.123 31.369 41.087 30.023 42.597 C 27.632 45.277 28.125 51.873 30.884 54.107 C 33.409 56.152 38.045 56.582 40.929 55.038 C 43.974 53.408 45.457 48.518 43.984 44.962 C 42.477 41.322 40.268 39.989 35.816 40.032 C 32.845 40.060 32.682 40.202 34.250 41.392 "/></g>
<g fill="#000000FF" stroke="#000000FF">
<path d="M 83.345 41.829 C 85.360 44.055 85.434 45.395 83.627 46.895 C 81.694 48.499 79.003 47.194 78.985 44.643 C 78.972 42.893 78.792 42.775 78.000 44.000 C 73.153 51.500 84.692 60.214 90.826 53.686 C 95.722 48.474 92.134 40.000 85.031 40.000 C 81.858 40.000 81.773 40.092 83.345 41.829 "/></g>
<g fill="#F37A57FF" stroke="#F37A57FF">
<path d="M 18.488 60.013 C 15.908 62.864 16.133 67.880 18.944 70.156 C 25.856 75.752 35.257 66.257 29.000 60.000 C 26.350 57.350 20.892 57.357 18.488 60.013 "/></g>
<g fill="#F37A57FF" stroke="#F37A57FF">
<path d="M 92.655 59.829 C 90.179 62.565 90.498 68.535 93.223 70.443 C 96.405 72.673 100.309 72.365 102.826 69.686 C 105.382 66.964 105.620 63.330 103.443 60.223 C 101.440 57.363 95.096 57.131 92.655 59.829 "/></g>
<g fill="#FFFFFFFF" stroke="#FFFFFFFF">
<path d="M 80.110 43.367 C 79.246 44.409 79.346 45.042 80.530 46.025 C 82.441 47.611 84.574 45.939 83.664 43.567 C 82.923 41.637 81.608 41.563 80.110 43.367 "/></g>
<g fill="#FFFFFFFF" stroke="#FFFFFFFF">
<path d="M 31.336 43.567 C 30.502 45.739 32.618 47.782 34.133 46.267 C 35.413 44.987 34.620 42.000 33.000 42.000 C 32.415 42.000 31.667 42.705 31.336 43.567 "/></g>
<g fill="#000000FF" stroke="#000000FF">
<path d="M 54.500 77.535 C 52.096 78.693 51.997 78.846 54.000 78.307 C 55.375 77.937 58.300 77.323 60.500 76.942 L 64.500 76.250 61.000 76.170 C 59.075 76.126 56.150 76.740 54.500 77.535 "/></g>
<g fill="#000000FF" stroke="#000000FF">
<path d="M 74.000 78.128 C 72.075 79.156 71.085 79.998 71.800 79.998 C 73.557 80.001 79.761 76.732 78.500 76.469 C 77.950 76.354 75.925 77.100 74.000 78.128 "/></g>
<g fill="#000000FF" stroke="#000000FF">
<path d="M 58.683 68.056 C 59.418 68.808 60.553 68.954 61.683 68.442 C 63.192 67.759 62.991 67.554 60.500 67.233 C 58.165 66.932 57.762 67.114 58.683 68.056 "/></g>
<g fill="#000000FF" stroke="#000000FF">
<path d="M 66.000 78.000 C 66.825 78.533 68.175 78.945 69.000 78.914 C 69.989 78.878 69.819 78.567 68.500 78.000 C 65.751 76.819 64.172 76.819 66.000 78.000 "/></g>
<g fill="#000000B4" stroke="#000000B4">
<path d="M 110.500 111.410 L 108.500 113.567 110.500 111.410 L 112.500 109.253 110.500 111.410 "/></g>
<g fill="#000000B4" stroke="#000000B4">
<path d="M 9.000 111.000 L 11.500 113.500 9.000 111.000 L 6.500 108.500 9.000 111.000 "/></g>
<g fill="#00000030" stroke="#00000030">
<path d="M 111.500 112.410 L 109.500 114.567 111.500 112.410 L 113.500 110.253 111.500 112.410 "/></g>
<g fill="#00000030" stroke="#00000030">
<path d="M 8.000 112.000 L 10.500 114.500 8.000 112.000 L 5.500 109.500 8.000 112.000 "/></g>
<g fill="#000000FF" stroke="#000000FF">
<path d="M 43.872 77.298 C 44.627 78.234 45.740 79.000 46.345 79.000 C 46.950 79.000 46.332 78.234 44.973 77.298 C 42.644 75.695 42.580 75.695 43.872 77.298 "/></g>
<g fill="#FFFF1FFF" stroke="#FFFF1FFF">
<path d="M 8.000 9.888 L 6.500 11.563 8.000 9.888 L 9.500 8.212 8.000 9.888 "/></g>
<g fill="#00000085" stroke="#00000085">
<path d="M 111.000 111.888 L 109.500 113.563 111.000 111.888 L 112.500 110.212 111.000 111.888 "/></g>
<g fill="#00000085" stroke="#00000085">
<path d="M 9.000 112.000 L 11.000 114.000 9.000 112.000 L 7.000 110.000 9.000 112.000 "/></g>
<g fill="#FFFF75FF" stroke="#FFFF75FF">
<path d="M 106.387 5.157 C 107.776 5.963 108.090 5.955 107.578 5.126 C 107.195 4.507 106.346 4.014 105.691 4.030 C 105.036 4.047 105.349 4.554 106.387 5.157 "/></g>
<g fill="#00000085" stroke="#00000085">
<path d="M 106.000 115.047 C 105.010 115.656 104.925 115.975 105.750 115.985 C 106.438 115.993 107.113 115.578 107.250 115.062 C 107.404 114.485 106.924 114.479 106.000 115.047 "/></g>
<g fill="#00000085" stroke="#00000085">
<path d="M 12.422 114.874 C 12.805 115.493 13.654 115.986 14.309 115.970 C 14.964 115.953 14.651 115.446 13.613 114.843 C 12.224 114.037 11.910 114.045 12.422 114.874 "/></g>
</svg>
