<?xml version="1.0" encoding="utf-8"?>
<!DOCTYPE svg PUBLIC "-//W3C//DTD SVG 20010904//EN" "http://www.w3.org/TR/2001/REC-SVG-20010904/DTD/svg10.dtd">
<svg version="1.0" xmlns="http://www.w3.org/2000/svg" width="258pt" height="258pt" viewBox="0 0 258 258" style="" preserveAspectRatio="xMidYMid meet">
<g fill="#F5F5F5FF" stroke="#F5F5F5FF">
<path d="M 147.757 131.422 C 144.048 132.731 138.997 134.984 136.532 136.428 C 129.432 140.589 116.000 151.027 116.000 152.383 C 116.000 154.713 118.660 157.345 120.355 156.694 C 122.151 156.005 122.640 157.486 120.959 158.525 C 120.387 158.879 118.825 160.901 117.489 163.018 C 115.552 166.086 112.995 167.901 104.892 171.957 C 99.301 174.756 91.853 177.768 88.342 178.650 L 81.957 180.254 82.601 183.877 C 83.849 190.903 89.249 206.579 92.701 213.200 C 94.636 216.910 98.868 222.598 102.187 225.948 C 110.837 234.678 114.141 235.527 139.000 235.402 C 155.707 235.319 160.434 234.928 172.000 232.674 C 189.451 229.273 202.771 225.557 205.964 223.197 C 210.442 219.888 213.244 213.500 213.672 205.628 C 213.999 199.609 213.860 198.789 212.780 200.358 C 208.563 206.483 207.828 207.102 206.293 205.828 C 203.404 203.431 197.284 193.446 194.663 186.855 C 192.231 180.739 189.399 166.168 188.763 156.500 L 188.500 152.500 183.000 151.990 C 177.623 151.491 164.000 146.320 164.000 144.777 C 164.000 144.350 164.900 144.000 166.000 144.000 C 167.134 144.000 168.000 143.333 168.000 142.460 C 168.000 139.613 164.204 133.447 161.591 132.049 C 160.166 131.286 159.000 130.288 159.000 129.831 C 159.000 128.366 154.685 128.977 147.757 131.422 M 205.044 206.082 C 205.949 207.773 205.815 208.423 204.329 209.547 C 200.640 212.336 191.875 215.989 184.122 217.969 C 173.504 220.680 170.774 220.475 179.500 217.622 C 188.215 214.772 195.447 211.067 200.000 207.117 C 201.925 205.447 203.597 204.063 203.715 204.041 C 203.833 204.018 204.431 204.937 205.044 206.082 M 108.653 226.051 C 110.624 226.701 114.317 226.999 116.860 226.712 L 121.482 226.191 119.130 228.096 C 113.665 232.521 103.530 228.188 96.685 218.500 C 95.026 216.153 95.708 216.519 99.817 220.184 C 102.706 222.760 106.682 225.400 108.653 226.051 "/></g>
<g fill="#BBD7EFFF" stroke="#BBD7EFFF">
<path d="M 152.611 18.532 C 151.768 19.375 150.816 21.737 150.495 23.782 C 148.944 33.664 145.699 42.611 142.213 46.622 C 138.726 50.634 125.779 56.314 115.439 58.369 C 111.073 59.236 97.150 61.544 84.500 63.498 C 71.850 65.451 59.027 67.772 56.004 68.654 C 48.368 70.882 43.646 75.755 42.001 83.105 C 40.795 88.494 40.973 89.717 46.868 116.599 C 50.233 131.945 53.102 145.625 53.243 147.000 C 53.536 149.846 55.520 150.754 61.769 150.900 C 65.687 150.992 66.000 150.815 65.579 148.750 C 65.327 147.513 64.848 142.900 64.515 138.500 C 63.708 127.851 60.420 106.369 58.125 96.750 C 57.107 92.488 56.611 89.000 57.021 89.000 C 57.431 89.000 58.002 88.100 58.290 87.000 C 58.623 85.724 59.662 84.994 61.156 84.985 C 65.298 84.958 66.327 83.596 65.791 78.853 L 65.299 74.500 78.900 74.844 C 113.237 75.712 155.664 69.360 177.205 60.127 C 181.758 58.175 181.812 58.174 182.316 60.100 C 182.596 61.170 182.826 61.748 182.827 61.385 C 182.830 60.375 185.303 59.069 186.182 59.613 C 186.610 59.877 186.686 62.710 186.352 65.908 C 185.949 69.758 186.125 71.959 186.872 72.421 C 187.492 72.804 188.000 74.885 188.000 77.046 C 188.000 80.549 188.359 81.123 191.323 82.361 C 198.110 85.197 203.956 91.872 206.051 99.178 C 207.119 102.902 205.946 103.401 200.485 101.547 C 194.672 99.573 194.000 99.603 194.000 101.833 C 194.000 102.842 193.725 103.942 193.389 104.278 C 193.053 104.614 192.594 107.241 192.369 110.116 C 192.145 112.990 191.498 115.899 190.933 116.581 C 190.191 117.475 190.511 118.244 192.083 119.346 C 194.069 120.737 194.821 120.669 200.560 118.586 C 204.023 117.329 209.151 114.828 211.954 113.030 C 217.247 109.633 224.000 102.554 224.000 100.402 C 224.000 99.721 221.932 92.265 219.405 83.832 C 212.737 61.580 205.260 50.283 197.000 49.979 C 193.167 49.838 187.515 47.648 187.375 46.250 C 187.306 45.563 187.194 45.280 187.125 45.622 C 186.785 47.317 183.357 42.832 180.918 37.500 C 174.535 23.546 167.511 17.000 158.921 17.000 C 155.963 17.000 153.559 17.583 152.611 18.532 "/></g>
<g fill="#F5F5F5FF" stroke="#F5F5F5FF">
<path d="M 151.447 82.033 C 134.805 84.097 111.333 90.823 97.392 97.523 C 87.610 102.223 83.386 107.986 80.392 120.710 C 78.888 127.105 78.208 147.541 79.457 148.791 C 80.406 149.740 85.000 147.090 85.000 145.593 C 85.000 143.451 91.442 137.000 93.581 137.000 C 94.595 137.000 96.438 135.763 97.676 134.250 L 99.928 131.500 99.964 134.750 C 99.996 137.648 100.309 138.000 102.851 138.000 C 104.419 138.000 107.087 138.483 108.780 139.073 C 112.073 140.221 114.155 139.438 127.000 132.220 C 135.168 127.630 148.873 123.944 160.248 123.279 C 171.193 122.639 173.065 121.634 171.147 117.423 C 169.683 114.211 169.703 113.690 171.250 114.691 C 171.938 115.136 175.425 115.514 179.000 115.531 C 182.575 115.548 186.661 115.915 188.079 116.346 C 190.652 117.129 190.662 117.110 191.934 108.560 C 192.635 103.846 193.590 99.754 194.055 99.466 C 194.521 99.178 197.399 99.786 200.451 100.816 C 203.503 101.847 205.997 102.422 205.994 102.095 C 205.966 99.016 203.197 93.117 200.252 89.857 C 193.700 82.605 190.576 81.614 173.500 81.371 C 165.250 81.254 155.326 81.552 151.447 82.033 M 191.500 100.347 C 191.500 102.048 190.321 102.214 176.500 102.461 C 164.420 102.676 159.167 103.262 149.516 105.467 C 137.208 108.279 122.470 113.189 115.194 116.901 C 112.931 118.055 110.654 119.000 110.134 119.000 C 109.614 119.000 108.479 116.919 107.613 114.376 C 106.746 111.833 105.016 108.500 103.769 106.970 L 101.500 104.187 104.004 106.343 C 105.381 107.530 107.438 109.789 108.575 111.364 L 110.641 114.227 123.071 110.130 C 147.738 101.999 167.811 98.090 183.500 98.361 C 190.562 98.484 191.500 98.717 191.500 100.347 "/></g>
<g fill="#91816DFF" stroke="#91816DFF">
<path d="M 76.882 134.083 C 76.817 138.163 76.384 142.850 75.920 144.500 C 75.283 146.764 75.180 146.151 75.502 142.000 C 75.794 138.245 75.645 137.135 75.035 138.500 C 73.765 141.341 73.798 148.398 75.087 149.687 C 75.870 150.470 75.870 150.962 75.087 151.446 C 73.479 152.440 72.016 151.181 71.884 148.691 C 71.778 146.687 71.725 146.668 71.267 148.475 C 70.992 149.561 70.032 151.010 69.133 151.693 C 67.234 153.138 62.000 153.428 62.000 152.088 C 62.000 151.586 60.763 151.316 59.250 151.487 C 57.738 151.659 55.938 151.339 55.250 150.777 C 54.563 150.215 54.000 150.066 54.000 150.446 C 54.000 150.825 52.650 150.175 51.000 149.000 C 49.350 147.825 48.000 147.220 48.000 147.654 C 48.000 148.089 47.216 147.332 46.257 145.973 C 45.299 144.613 44.511 144.110 44.507 144.855 C 44.503 145.735 43.833 145.473 42.595 144.105 C 41.547 142.947 41.085 142.000 41.568 142.000 C 42.050 142.000 41.352 141.235 40.017 140.299 L 37.589 138.599 39.876 142.299 C 43.050 147.435 40.406 147.178 36.558 141.976 C 34.940 139.789 33.187 138.000 32.663 138.000 C 32.095 138.000 31.944 140.789 32.289 144.902 C 34.359 169.599 60.022 181.260 94.341 173.097 C 99.203 171.941 103.591 171.247 104.091 171.556 C 104.591 171.865 105.000 171.641 105.000 171.059 C 105.000 170.477 105.338 170.096 105.750 170.212 C 106.826 170.517 111.121 168.095 113.750 165.701 C 114.988 164.574 116.007 164.067 116.015 164.576 C 116.024 165.084 116.455 164.829 116.974 164.008 C 117.492 163.188 117.662 161.500 117.350 160.258 C 116.931 158.590 117.219 158.000 118.451 158.000 C 119.518 158.000 119.848 158.450 119.367 159.250 C 118.875 160.069 119.211 160.017 120.341 159.100 C 121.290 158.330 121.862 157.205 121.612 156.600 C 121.285 155.808 121.136 155.812 121.079 156.611 C 121.034 157.246 119.934 157.519 118.512 157.247 C 117.143 156.985 116.270 156.373 116.571 155.886 C 116.872 155.399 116.718 155.000 116.229 155.000 C 115.740 155.000 115.376 152.863 115.420 150.250 C 115.484 146.468 115.012 145.041 113.104 143.250 C 111.786 142.013 110.297 141.000 109.795 141.000 C 109.293 141.000 109.190 140.502 109.566 139.893 C 110.036 139.133 109.505 139.015 107.875 139.517 C 106.569 139.919 105.837 139.893 106.248 139.460 C 106.659 139.026 104.859 138.589 102.248 138.490 C 99.637 138.390 96.526 137.996 95.336 137.614 C 93.760 137.109 92.536 137.577 90.836 139.334 C 87.828 142.443 85.561 145.237 85.019 146.500 C 84.398 147.949 80.117 149.999 79.568 149.110 C 79.312 148.695 78.900 143.747 78.654 138.114 C 78.123 125.990 77.050 123.549 76.882 134.083 M 46.901 160.064 C 48.511 165.439 47.077 167.184 44.129 163.436 C 42.905 161.881 42.000 159.285 42.000 157.330 C 42.000 154.349 42.225 154.050 43.824 154.906 C 44.827 155.443 46.212 157.764 46.901 160.064 M 44.024 152.000 C 43.390 152.000 43.212 151.466 43.624 150.799 C 44.202 149.865 44.455 149.865 44.766 150.799 C 44.987 151.460 44.653 152.000 44.024 152.000 "/></g>
<g fill="#91816DFF" stroke="#91816DFF">
<path d="M 224.510 86.750 C 225.722 91.238 225.855 99.351 224.751 101.500 C 223.344 104.240 214.862 112.561 213.803 112.241 C 213.331 112.098 212.685 112.658 212.367 113.485 C 212.050 114.312 211.388 114.740 210.895 114.435 C 210.403 114.131 210.000 114.328 210.000 114.874 C 210.000 115.868 206.157 117.570 204.750 117.198 C 204.338 117.089 204.000 117.525 204.000 118.167 C 204.000 118.808 203.704 119.037 203.342 118.675 C 202.980 118.313 202.080 118.519 201.342 119.131 C 200.604 119.744 200.000 119.910 200.000 119.500 C 200.000 119.090 199.325 119.315 198.500 120.000 C 197.675 120.685 197.000 120.910 197.000 120.500 C 197.000 120.090 196.283 120.351 195.406 121.078 C 194.045 122.208 193.536 122.043 191.928 119.951 C 190.892 118.603 190.028 117.950 190.007 118.500 C 189.986 119.050 189.594 118.908 189.135 118.184 C 188.675 117.459 187.445 116.706 186.400 116.510 C 185.355 116.314 184.500 116.061 184.500 115.949 C 184.500 115.179 179.257 115.416 178.250 116.232 C 177.563 116.789 177.000 116.930 177.000 116.546 C 177.000 116.161 175.821 117.247 174.381 118.959 C 172.940 120.671 170.451 122.750 168.848 123.579 C 167.246 124.407 166.201 125.516 166.526 126.043 C 166.852 126.569 166.566 127.000 165.892 127.000 C 165.218 127.000 164.978 127.312 165.359 127.693 C 165.740 128.074 163.678 128.313 160.776 128.226 C 157.874 128.138 156.175 128.342 157.000 128.680 C 159.854 129.847 168.000 137.191 167.442 138.094 C 167.134 138.592 167.385 139.000 168.000 139.000 C 168.615 139.000 168.848 139.437 168.518 139.971 C 168.188 140.504 168.621 142.300 169.479 143.960 C 170.338 145.621 171.031 147.209 171.020 147.490 C 171.009 147.770 171.113 147.924 171.250 147.831 C 171.388 147.738 172.625 148.279 174.000 149.033 C 176.903 150.625 176.867 150.614 183.750 151.798 C 186.638 152.295 189.000 152.319 189.000 151.851 C 189.000 151.383 188.438 150.975 187.750 150.945 C 187.063 150.915 189.854 150.012 193.953 148.939 C 207.245 145.459 222.230 136.488 229.271 127.795 C 234.814 120.953 236.296 117.200 236.798 108.733 C 237.368 99.131 235.571 93.806 229.821 88.057 C 225.039 83.275 223.466 82.888 224.510 86.750 M 234.996 105.861 L 234.993 108.500 232.996 105.226 C 231.898 103.425 231.015 101.175 231.033 100.226 C 231.090 97.259 235.001 102.819 234.996 105.861 M 165.150 131.000 C 165.233 131.550 165.345 132.424 165.400 132.943 C 165.455 133.461 164.375 133.021 163.000 131.965 C 160.502 130.046 160.501 130.044 162.750 130.022 C 163.988 130.010 165.068 130.450 165.150 131.000 "/></g>
<g fill="#BBD7EFFF" stroke="#BBD7EFFF">
<path d="M 232.263 129.596 C 233.151 130.484 221.248 140.802 215.500 144.127 C 210.035 147.288 196.292 152.000 192.537 152.000 C 190.358 152.000 190.152 152.458 189.839 158.002 C 189.652 161.303 189.830 164.116 190.232 164.252 C 190.635 164.388 191.085 167.309 191.232 170.742 C 191.380 174.174 191.890 176.987 192.367 176.992 C 192.843 176.996 193.004 177.878 192.723 178.952 C 192.442 180.026 192.656 181.052 193.198 181.233 C 193.741 181.414 194.255 182.785 194.342 184.280 C 194.497 186.946 195.394 187.790 196.379 186.195 C 196.653 185.753 200.276 184.325 204.431 183.022 C 208.586 181.719 211.835 180.502 211.652 180.318 C 211.468 180.134 207.777 180.869 203.450 181.950 C 199.123 183.031 195.421 183.754 195.223 183.557 C 194.933 183.267 208.075 178.993 217.500 176.312 C 221.451 175.188 227.565 171.730 231.057 168.644 C 233.014 166.915 232.487 167.575 229.888 170.112 C 226.978 172.951 222.726 175.720 218.830 177.313 C 215.349 178.737 213.175 179.914 214.000 179.928 C 216.561 179.970 226.477 175.501 230.314 172.574 C 232.324 171.041 234.941 168.214 236.129 166.292 C 238.085 163.127 238.230 161.907 237.667 153.340 C 237.325 148.139 236.709 143.347 236.298 142.692 C 235.887 142.036 235.679 140.713 235.838 139.750 C 235.996 138.788 235.639 138.000 235.044 138.000 C 234.373 138.000 234.214 136.994 234.627 135.351 C 235.106 133.440 234.961 132.906 234.106 133.435 C 233.254 133.961 233.103 133.440 233.568 131.584 C 234.012 129.817 233.814 129.000 232.942 129.000 C 232.240 129.000 231.935 129.268 232.263 129.596 "/></g>
<g fill="#F5F5F5FF" stroke="#F5F5F5FF">
<path d="M 149.656 21.882 C 148.642 23.743 147.400 28.243 146.897 31.882 C 146.394 35.522 145.496 39.705 144.900 41.177 C 143.563 44.485 137.820 48.509 132.500 49.866 C 128.047 51.002 85.880 56.682 76.500 57.409 C 53.829 59.166 40.330 62.364 35.995 67.006 C 32.869 70.352 31.000 76.054 31.000 82.243 C 31.000 90.417 45.320 140.071 49.603 146.750 C 51.339 149.456 54.370 149.832 53.640 147.250 C 53.367 146.288 50.355 132.720 46.947 117.099 C 40.975 89.732 40.795 88.495 42.001 83.105 C 43.646 75.755 48.368 70.882 56.004 68.654 C 59.027 67.772 71.850 65.451 84.500 63.498 C 97.150 61.544 111.073 59.236 115.439 58.369 C 125.779 56.314 138.726 50.634 142.213 46.622 C 145.762 42.540 148.462 34.997 150.671 23.000 L 151.500 18.500 149.656 21.882 "/></g>
<g fill="#6288AAFF" stroke="#6288AAFF">
<path d="M 35.453 65.428 C 28.095 69.282 23.605 77.871 24.539 86.306 C 24.943 89.959 24.865 90.178 23.936 88.000 C 22.932 85.646 22.808 85.610 21.809 87.387 C 20.960 88.895 21.023 89.112 22.124 88.465 C 22.881 88.020 22.600 88.711 21.500 90.000 C 20.400 91.289 20.063 92.015 20.750 91.613 C 22.489 90.596 22.314 91.829 20.455 93.688 C 19.606 94.537 19.120 95.742 19.376 96.366 C 19.692 97.134 19.868 97.097 19.921 96.250 C 19.964 95.563 20.361 95.000 20.801 95.000 C 21.242 95.000 21.034 99.613 20.339 105.250 C 19.644 110.888 19.134 118.875 19.206 123.000 L 19.336 130.500 20.000 124.500 L 20.664 118.500 20.837 124.500 C 21.059 132.155 24.308 154.328 27.519 170.093 C 28.889 176.820 29.783 182.551 29.505 182.828 C 29.227 183.106 29.000 182.508 29.000 181.500 C 29.000 180.492 28.753 179.914 28.451 180.215 C 28.150 180.517 28.209 181.985 28.584 183.477 C 29.102 185.541 29.492 185.868 30.213 184.845 C 30.858 183.931 30.963 184.407 30.541 186.334 C 30.124 188.238 30.274 188.949 31.000 188.500 C 31.730 188.049 31.858 188.718 31.394 190.565 C 30.940 192.373 31.065 193.078 31.761 192.648 C 32.429 192.235 32.607 192.786 32.249 194.155 C 31.829 195.762 32.020 196.106 32.997 195.502 C 33.825 194.990 34.067 195.083 33.653 195.752 C 32.311 197.924 37.233 208.043 41.342 211.561 C 43.552 213.452 45.841 214.993 46.430 214.985 C 47.018 214.976 46.898 214.588 46.162 214.121 C 45.296 213.573 46.197 213.273 48.709 213.273 C 54.820 213.273 61.673 209.753 63.655 205.598 C 65.298 202.151 65.260 201.816 61.965 190.885 C 58.625 179.802 56.321 175.983 53.246 176.434 C 52.147 176.596 52.017 176.893 52.827 177.393 C 53.472 177.792 54.014 177.754 54.030 177.309 C 54.118 174.968 56.580 181.453 58.566 189.259 C 60.671 197.533 60.700 198.039 58.984 196.486 C 57.246 194.913 57.169 194.931 57.659 196.806 C 57.946 197.900 57.413 199.967 56.475 201.398 C 54.378 204.599 48.945 204.999 46.250 202.150 C 41.465 197.093 38.693 192.640 39.702 191.631 C 40.049 191.284 39.733 191.000 39.000 191.000 C 38.267 191.000 37.963 190.704 38.325 190.342 C 38.687 189.980 38.481 189.080 37.869 188.342 C 37.256 187.604 37.090 187.000 37.500 187.000 C 37.910 187.000 37.685 186.325 37.000 185.500 C 36.315 184.675 36.090 184.000 36.500 184.000 C 36.910 184.000 36.701 183.345 36.036 182.544 C 35.372 181.743 35.099 180.649 35.430 180.113 C 35.762 179.577 35.604 178.873 35.080 178.549 C 34.556 178.226 34.141 177.182 34.158 176.230 C 34.174 175.279 33.914 173.375 33.578 172.000 C 30.963 161.275 27.697 140.279 26.967 129.500 C 25.690 110.647 25.749 97.727 27.107 98.566 C 27.873 99.039 27.974 98.518 27.434 96.875 C 26.257 93.293 26.361 90.751 27.702 90.284 C 28.443 90.026 29.449 91.907 30.322 95.183 C 31.101 98.107 33.370 106.638 35.365 114.140 C 38.449 125.739 46.791 148.362 46.357 143.951 C 46.279 143.153 43.683 133.991 40.588 123.590 C 32.201 95.405 30.750 89.203 30.706 81.365 C 30.667 74.356 32.468 69.265 36.313 65.513 C 37.214 64.635 37.006 64.614 35.453 65.428 "/></g>
<g fill="#5A4B38FF" stroke="#5A4B38FF">
<path d="M 27.103 111.000 C 26.869 138.020 33.003 176.000 40.182 191.996 C 45.081 202.910 51.051 206.916 55.345 202.171 C 57.631 199.645 57.422 195.681 54.466 185.479 C 53.072 180.670 52.193 176.474 52.511 176.155 C 52.830 175.836 53.964 176.121 55.032 176.788 C 57.549 178.360 58.000 178.316 58.000 176.500 C 58.000 174.711 59.163 174.563 60.749 176.149 C 61.381 176.781 63.606 177.576 65.692 177.915 C 68.907 178.437 69.576 178.987 70.078 181.516 L 70.671 184.500 71.085 181.500 C 71.313 179.850 72.063 178.444 72.750 178.375 C 73.438 178.306 74.113 178.166 74.250 178.064 C 74.388 177.962 77.650 177.659 81.500 177.392 C 89.544 176.833 94.108 175.760 100.192 172.999 C 105.645 170.524 105.119 170.533 94.329 173.100 C 60.023 181.260 34.359 169.595 32.289 144.902 C 31.944 140.789 32.095 138.000 32.663 138.000 C 33.187 138.000 34.940 139.789 36.558 141.976 C 39.582 146.063 42.464 147.446 41.299 144.250 C 40.740 142.718 40.962 142.749 43.080 144.500 L 45.500 146.500 43.616 144.274 C 42.580 143.049 41.365 142.274 40.917 142.552 C 40.468 142.829 39.554 142.031 38.886 140.778 C 37.811 138.759 37.850 138.647 39.235 139.789 C 40.497 140.829 40.402 140.001 38.739 135.488 C 37.307 131.602 36.415 130.295 35.810 131.200 C 35.249 132.037 35.126 131.610 35.463 130.000 C 35.781 128.480 34.260 122.402 31.585 114.500 L 27.185 101.500 27.103 111.000 M 47.426 176.283 C 48.806 178.638 50.636 182.553 51.493 184.981 L 53.051 189.397 50.558 187.055 C 49.187 185.767 47.310 182.415 46.387 179.606 C 45.464 176.798 44.501 173.938 44.247 173.250 C 43.233 170.503 45.059 172.245 47.426 176.283 "/></g>
<g fill="#91816DFF" stroke="#91816DFF">
<path d="M 62.000 29.172 C 60.075 29.717 57.424 31.139 56.108 32.331 C 53.228 34.943 48.872 44.187 46.474 52.777 C 44.774 58.867 45.146 62.278 47.125 58.742 C 47.661 57.784 48.940 57.000 49.966 57.000 C 50.993 57.000 52.060 56.438 52.338 55.750 C 52.625 55.038 52.941 55.361 53.071 56.500 C 53.197 57.600 53.615 56.475 54.000 54.000 L 54.700 49.500 54.850 53.750 C 54.932 56.088 55.113 57.993 55.250 57.984 C 58.985 57.752 88.218 54.115 88.483 53.851 C 88.690 53.643 87.289 51.004 85.369 47.987 C 83.449 44.969 80.730 40.100 79.327 37.167 C 75.422 29.002 70.545 26.752 62.000 29.172 M 61.509 33.992 C 59.280 35.843 58.565 34.578 60.658 32.485 C 61.622 31.521 62.558 31.175 62.739 31.716 C 62.919 32.257 62.366 33.281 61.509 33.992 "/></g>
<g fill="#F5F5F5FF" stroke="#F5F5F5FF">
<path d="M 174.500 73.674 C 151.693 75.600 78.429 85.238 77.192 86.475 C 76.999 86.667 76.351 95.996 75.752 107.204 C 74.998 121.326 74.979 129.565 75.693 134.041 L 76.722 140.500 76.861 134.856 C 77.128 124.016 79.094 108.906 81.069 102.512 C 82.951 96.420 83.318 95.952 87.780 93.960 C 107.162 85.307 135.388 80.096 171.750 78.460 C 186.965 77.775 187.000 77.768 187.000 75.387 C 187.000 72.838 186.009 72.702 174.500 73.674 "/></g>
<g fill="#AEAFAFFF" stroke="#AEAFAFFF">
<path d="M 171.775 64.086 C 154.728 69.714 126.458 73.518 91.326 74.910 C 79.130 75.393 68.668 76.087 68.076 76.453 C 67.484 76.819 67.000 78.640 67.000 80.500 C 67.000 83.681 66.747 83.932 62.750 84.723 C 58.819 85.500 57.116 87.553 59.173 89.032 C 60.306 89.847 62.594 104.205 65.462 128.500 C 66.891 140.600 68.159 150.823 68.280 151.218 C 68.401 151.613 69.120 151.551 69.877 151.080 C 71.030 150.364 71.072 147.565 70.132 133.862 C 69.121 119.107 68.556 95.921 68.878 82.403 L 69.000 77.306 86.250 76.616 C 128.876 74.912 162.970 70.034 178.500 63.418 C 185.097 60.608 181.109 61.004 171.775 64.086 "/></g>
<g fill="#AEAFAFFF" stroke="#AEAFAFFF">
<path d="M 187.150 75.750 L 187.000 79.000 174.107 79.000 C 148.596 79.000 118.193 83.564 98.500 90.350 C 82.596 95.831 83.446 95.160 81.020 104.150 C 79.817 108.607 78.700 116.220 78.498 121.327 C 78.299 126.372 78.352 129.150 78.616 127.500 C 80.197 117.613 85.009 106.131 89.151 102.363 C 96.733 95.465 127.653 85.043 149.500 82.022 C 153.900 81.414 164.475 80.998 173.000 81.097 L 188.500 81.278 187.900 76.889 C 187.390 73.156 187.278 72.986 187.150 75.750 "/></g>
<g fill="#F5F5F5FF" stroke="#F5F5F5FF">
<path d="M 80.095 182.002 C 79.998 184.556 85.983 219.851 87.895 228.000 C 89.267 233.847 89.258 234.000 87.545 234.000 C 86.671 234.000 85.825 232.585 85.425 230.453 C 85.059 228.503 84.560 227.107 84.315 227.351 C 84.071 227.596 84.175 229.417 84.547 231.398 C 85.094 234.317 85.667 235.000 87.566 235.000 C 89.454 235.000 90.037 235.683 90.568 238.511 C 90.930 240.442 91.513 242.194 91.863 242.403 C 92.848 242.993 117.385 241.231 128.000 239.808 L 137.500 238.534 122.000 238.844 L 106.500 239.154 102.242 233.827 C 93.979 223.492 87.224 208.053 82.408 188.500 C 81.188 183.550 80.148 180.626 80.095 182.002 "/></g>
<g fill="#AEAFAFFF" stroke="#AEAFAFFF">
<path d="M 73.750 179.811 C 71.599 180.224 71.593 180.865 73.558 199.572 C 74.415 207.729 74.847 215.475 74.518 216.785 C 74.120 218.370 74.285 218.942 75.011 218.493 C 75.733 218.047 76.109 219.284 76.122 222.160 C 76.134 224.547 76.253 228.750 76.388 231.500 C 76.523 234.250 76.716 238.236 76.817 240.357 C 76.971 243.598 77.279 244.102 78.750 243.510 C 79.713 243.123 80.950 242.725 81.500 242.625 C 82.050 242.525 83.063 242.092 83.750 241.663 C 84.438 241.233 85.470 241.172 86.044 241.527 C 86.618 241.882 87.743 241.628 88.544 240.964 C 89.345 240.299 90.068 240.035 90.150 240.378 C 90.233 240.720 90.300 240.550 90.300 240.000 C 90.300 235.358 89.972 234.790 87.634 235.377 C 85.358 235.948 85.186 235.586 83.081 225.735 C 80.245 212.468 74.871 181.391 75.225 180.311 C 75.376 179.851 74.713 179.626 73.750 179.811 "/></g>
<g fill="#BBD7EFFF" stroke="#BBD7EFFF">
<path d="M 167.000 70.099 C 159.575 71.125 152.009 71.869 150.186 71.752 C 148.364 71.635 147.201 71.868 147.603 72.270 C 148.005 72.671 146.346 73.091 143.917 73.203 C 134.950 73.614 133.463 73.771 131.738 74.490 C 130.768 74.893 128.642 75.028 127.012 74.788 C 125.382 74.549 123.925 74.621 123.774 74.949 C 123.623 75.276 112.250 77.036 98.500 78.859 C 84.750 80.683 73.275 82.400 73.000 82.675 C 72.191 83.483 72.556 123.776 73.451 132.500 C 74.171 139.506 74.394 140.147 75.249 137.663 C 75.924 135.701 75.882 134.482 75.113 133.713 C 73.804 132.404 73.546 87.263 74.835 85.232 C 75.704 83.863 130.722 76.583 134.720 77.308 C 135.941 77.530 136.758 77.417 136.536 77.058 C 136.314 76.699 147.053 75.117 160.400 73.542 C 178.587 71.396 184.667 70.344 184.667 69.340 C 184.667 67.719 184.038 67.746 167.000 70.099 "/></g>
<g fill="#A2C5E7FF" stroke="#A2C5E7FF">
<path d="M 238.225 161.518 C 237.863 164.760 233.553 170.345 228.946 173.540 C 226.568 175.189 218.440 178.521 210.589 181.063 C 195.632 185.908 195.056 186.370 197.339 191.709 C 198.036 193.339 198.706 193.693 199.892 193.058 C 200.776 192.584 201.833 192.141 202.240 192.071 C 202.646 192.002 203.546 191.752 204.240 191.515 C 204.933 191.278 208.389 190.359 211.920 189.471 C 225.016 186.179 236.287 178.318 237.548 171.595 C 237.872 169.868 238.208 166.440 238.294 163.978 C 238.380 161.515 238.349 160.408 238.225 161.518 "/></g>
<g fill="#AEAFAFFF" stroke="#AEAFAFFF">
<path d="M 155.061 124.087 C 145.936 125.268 135.735 128.546 126.852 133.151 C 116.218 138.665 115.451 139.685 115.842 147.789 L 116.000 151.078 118.250 148.911 C 129.777 137.810 149.760 128.000 160.845 128.000 C 163.214 128.000 164.985 127.229 166.588 125.500 L 168.905 123.000 165.202 123.127 C 163.166 123.197 158.602 123.629 155.061 124.087 "/></g>
<g fill="#F5F5F5FF" stroke="#F5F5F5FF">
<path d="M 105.000 76.056 C 100.325 76.466 90.243 76.846 82.596 76.901 L 68.692 77.000 69.309 105.750 C 69.922 134.278 70.495 139.998 72.814 140.771 C 73.737 141.079 73.841 138.401 73.259 129.336 C 72.409 116.084 72.228 83.435 73.000 82.668 C 73.275 82.395 84.975 80.600 99.000 78.678 C 122.603 75.445 125.276 74.276 105.000 76.056 "/></g>
<g fill="#AEAFAFFF" stroke="#AEAFAFFF">
<path d="M 84.010 193.122 C 83.991 196.165 89.084 210.482 93.062 218.569 C 95.245 223.007 99.186 229.307 101.818 232.569 L 106.605 238.500 123.751 238.500 C 133.181 238.500 140.133 238.154 139.198 237.732 C 138.204 237.282 139.055 237.152 141.250 237.419 C 143.313 237.669 145.000 237.500 145.000 237.042 C 145.000 236.584 140.254 236.190 134.454 236.166 C 116.090 236.090 107.962 233.308 100.136 224.418 C 94.391 217.890 91.209 212.074 87.366 201.076 C 85.526 195.809 84.016 192.230 84.010 193.122 "/></g>
<g fill="#AEAFAFFF" stroke="#AEAFAFFF">
<path d="M 176.500 98.632 C 162.052 99.609 134.625 105.852 118.319 111.876 L 110.138 114.899 107.819 111.209 L 105.500 107.520 107.250 111.607 C 108.213 113.854 109.000 116.437 109.000 117.347 C 109.000 119.473 109.176 119.451 114.783 116.613 C 121.496 113.217 135.839 108.280 147.500 105.353 C 155.370 103.378 161.056 102.725 174.195 102.285 C 186.974 101.858 191.014 101.407 191.414 100.363 C 191.764 99.451 191.162 99.000 189.594 99.000 C 188.305 99.000 185.956 98.841 184.375 98.647 C 182.794 98.453 179.250 98.446 176.500 98.632 "/></g>
<g fill="#BBD7EFFF" stroke="#BBD7EFFF">
<path d="M 61.357 180.805 C 63.257 187.851 64.239 194.741 64.363 201.885 C 64.428 205.662 63.985 206.650 61.160 209.007 C 59.357 210.513 56.446 212.245 54.691 212.857 L 51.500 213.970 55.000 213.474 C 59.396 212.850 63.045 210.248 65.066 206.295 C 66.531 203.432 66.791 203.321 69.066 204.581 C 72.160 206.295 73.000 206.320 73.000 204.701 C 73.000 203.986 71.475 202.850 69.610 202.176 C 67.729 201.496 65.989 200.066 65.700 198.962 C 65.234 197.179 65.494 197.237 68.216 199.528 C 69.885 200.933 71.456 201.877 71.707 201.627 C 72.275 201.058 69.878 182.399 69.082 181.192 C 68.762 180.706 66.790 180.039 64.700 179.709 C 61.456 179.197 60.967 179.358 61.357 180.805 "/></g>
<g fill="#F5F5F5FF" stroke="#F5F5F5FF">
<path d="M 187.990 47.193 C 189.143 48.127 192.204 49.198 194.793 49.573 C 200.597 50.415 202.859 51.510 205.750 54.878 C 211.354 61.408 214.991 69.134 219.437 83.953 C 221.987 92.452 224.345 99.652 224.677 99.953 C 227.503 102.510 217.476 67.293 213.361 60.210 C 210.321 54.976 205.460 49.336 202.613 47.737 C 201.451 47.085 197.214 46.313 193.197 46.023 C 186.210 45.519 185.985 45.569 187.990 47.193 "/></g>
<g fill="#A2C5E7FF" stroke="#A2C5E7FF">
<path d="M 65.000 206.326 C 62.930 210.537 58.708 213.366 54.249 213.527 C 52.187 213.602 50.397 214.159 50.272 214.765 C 50.018 215.994 57.026 217.542 67.250 218.516 C 74.852 219.240 74.589 219.574 73.382 210.768 C 72.862 206.975 72.265 206.020 69.632 204.766 C 66.552 203.298 66.475 203.324 65.000 206.326 "/></g>
<g fill="#A2C5E7FF" stroke="#A2C5E7FF">
<path d="M 26.540 90.936 C 25.883 91.998 31.313 112.071 36.701 128.500 C 39.728 137.731 40.967 140.143 44.404 143.500 C 47.163 146.195 48.402 146.920 48.200 145.722 C 48.028 144.702 47.422 144.239 46.780 144.636 C 46.043 145.091 45.885 144.741 46.319 143.612 C 46.681 142.668 46.579 142.142 46.092 142.443 C 44.767 143.262 38.713 127.179 35.010 113.000 C 33.215 106.125 31.115 98.138 30.345 95.250 C 29.010 90.246 27.808 88.884 26.540 90.936 "/></g>
<g fill="#BBD7EFFF" stroke="#BBD7EFFF">
<path d="M 75.423 182.250 C 75.677 183.488 76.182 186.300 76.544 188.500 C 77.544 194.561 77.943 196.741 78.605 199.750 C 78.938 201.263 79.331 203.400 79.477 204.500 C 79.623 205.600 80.081 207.307 80.495 208.293 C 80.909 209.279 80.970 210.363 80.632 210.701 C 80.294 211.039 80.514 211.914 81.121 212.645 C 81.727 213.376 81.968 214.641 81.656 215.455 C 81.343 216.270 81.557 217.226 82.131 217.581 C 82.705 217.936 82.952 219.075 82.681 220.113 C 82.409 221.151 82.648 222.000 83.210 222.000 C 83.773 222.000 84.018 223.125 83.755 224.500 C 83.492 225.875 83.615 227.000 84.027 227.000 C 84.440 227.000 85.073 228.575 85.434 230.500 C 85.827 232.595 86.675 234.000 87.545 234.000 C 89.336 234.000 89.336 233.981 87.367 226.000 C 86.486 222.425 85.655 218.825 85.521 218.000 C 85.387 217.175 84.942 215.713 84.532 214.750 C 84.122 213.788 84.045 212.325 84.362 211.500 C 84.678 210.675 84.449 210.000 83.852 210.000 C 83.237 210.000 82.972 208.929 83.239 207.530 C 83.499 206.172 83.402 205.251 83.025 205.485 C 82.647 205.718 81.057 200.079 79.490 192.954 C 77.923 185.830 76.264 180.000 75.802 180.000 C 75.340 180.000 75.170 181.013 75.423 182.250 "/></g>
<g fill="#F5F5F5FF" stroke="#F5F5F5FF">
<path d="M 180.000 63.216 C 174.576 65.536 159.470 69.462 148.500 71.404 C 136.006 73.616 142.641 73.229 164.000 70.500 C 174.725 69.130 183.865 68.006 184.310 68.004 C 184.756 68.002 184.981 66.491 184.810 64.646 L 184.500 61.293 180.000 63.216 "/></g>
<g fill="#5A4B38FF" stroke="#5A4B38FF">
<path d="M 229.196 128.085 C 222.016 136.629 206.793 145.619 194.010 148.865 C 188.163 150.350 187.086 150.893 188.866 151.457 C 194.758 153.327 213.153 145.403 222.098 137.141 C 225.069 134.397 228.625 130.353 230.000 128.153 L 232.500 124.155 229.196 128.085 "/></g>
<g fill="#AEAFAFFF" stroke="#AEAFAFFF">
<path d="M 91.368 82.307 L 75.237 84.352 74.627 89.426 C 74.292 92.217 74.080 100.800 74.157 108.500 L 74.296 122.500 75.084 108.500 C 75.517 100.800 76.148 92.624 76.485 90.332 L 77.098 86.164 83.799 85.059 C 87.485 84.451 95.900 83.110 102.500 82.078 C 118.373 79.595 111.668 79.734 91.368 82.307 "/></g>
<g fill="#A2C5E7FF" stroke="#A2C5E7FF">
<path d="M 147.403 21.617 C 144.331 24.529 142.731 27.250 141.007 32.500 C 139.742 36.350 138.500 40.063 138.247 40.750 C 137.534 42.684 141.466 42.247 143.332 40.186 C 144.235 39.188 145.583 35.152 146.327 31.218 C 147.070 27.284 148.539 22.641 149.590 20.899 C 151.471 17.782 151.437 17.793 147.403 21.617 "/></g>
<g fill="#AEAFAFFF" stroke="#AEAFAFFF">
<path d="M 197.500 209.089 C 194.750 211.248 189.125 214.345 185.000 215.970 C 180.875 217.595 177.959 218.941 178.520 218.962 C 180.727 219.044 194.434 214.821 198.352 212.852 C 204.432 209.796 206.240 207.994 204.874 206.348 C 203.370 204.536 203.232 204.587 197.500 209.089 "/></g>
<g fill="#5A4B38FF" stroke="#5A4B38FF">
<path d="M 223.000 84.885 C 223.000 85.922 223.700 88.285 224.555 90.135 C 225.570 92.333 225.889 92.633 225.474 91.000 C 223.912 84.855 223.825 84.000 224.766 84.000 C 226.814 84.000 233.937 92.268 235.568 96.540 C 237.471 101.522 237.203 114.180 235.083 119.500 C 234.425 121.150 234.783 120.700 235.878 118.500 C 241.065 108.077 239.144 95.858 231.045 87.759 C 226.054 82.768 223.000 81.677 223.000 84.885 "/></g>
<g fill="#F5F5F5FF" stroke="#F5F5F5FF">
<path d="M 231.500 168.233 C 228.587 171.100 221.564 175.153 217.500 176.311 C 207.829 179.067 194.936 183.269 195.234 183.567 C 196.067 184.400 215.834 178.704 221.513 175.994 C 224.878 174.388 229.177 171.320 231.066 169.177 C 233.606 166.294 233.719 166.048 231.500 168.233 "/></g>
<g fill="#A2C5E7FF" stroke="#A2C5E7FF">
<path d="M 177.000 60.222 C 174.525 61.289 167.325 63.680 161.000 65.534 C 148.116 69.312 148.116 70.020 161.000 66.980 C 172.847 64.185 182.124 60.821 181.785 59.443 C 181.588 58.639 180.114 58.879 177.000 60.222 "/></g>
<g fill="#A2C5E7FF" stroke="#A2C5E7FF">
<path d="M 53.374 179.532 C 54.727 183.059 57.215 193.755 57.436 197.000 C 57.568 198.925 57.748 199.432 57.838 198.128 C 57.969 196.209 58.269 195.978 59.406 196.922 C 60.465 197.801 60.252 195.886 58.544 189.171 C 57.295 184.266 55.961 179.746 55.578 179.126 C 54.532 177.434 52.698 177.771 53.374 179.532 "/></g>
<g fill="#A2C5E7FF" stroke="#A2C5E7FF">
<path d="M 22.603 151.250 C 25.059 165.681 28.974 183.360 29.579 182.754 C 29.788 182.545 28.628 175.652 27.000 167.437 C 25.372 159.222 24.031 151.488 24.020 150.250 C 24.009 149.013 23.561 148.000 23.025 148.000 C 22.478 148.000 22.293 149.427 22.603 151.250 "/></g>
<g fill="#5A4B38FF" stroke="#5A4B38FF">
<path d="M 42.000 157.330 C 42.000 161.174 45.675 166.725 47.206 165.194 C 48.580 163.820 46.040 156.092 43.824 154.906 C 42.225 154.050 42.000 154.349 42.000 157.330 "/></g>
<g fill="#6288AAFF" stroke="#6288AAFF">
<path d="M 143.128 40.426 C 142.373 41.292 140.460 42.000 138.878 42.000 C 137.295 42.000 136.113 42.390 136.250 42.868 C 136.388 43.345 135.375 44.656 134.000 45.782 C 132.625 46.907 131.823 48.152 132.218 48.549 C 133.999 50.336 143.289 43.832 144.178 40.176 C 144.394 39.286 144.050 39.368 143.128 40.426 "/></g>
<g fill="#91816DFF" stroke="#91816DFF">
<path d="M 44.247 173.250 C 44.501 173.938 45.464 176.798 46.387 179.606 C 47.310 182.415 49.187 185.767 50.558 187.055 L 53.051 189.397 51.493 184.981 C 49.826 180.255 45.284 172.000 44.351 172.000 C 44.040 172.000 43.994 172.563 44.247 173.250 "/></g>
<g fill="#91816DFF" stroke="#91816DFF">
<path d="M 74.336 178.000 C 74.060 178.275 73.308 178.500 72.667 178.500 C 72.006 178.500 71.524 179.909 71.556 181.750 C 71.586 183.538 71.699 183.875 71.806 182.500 C 71.913 181.125 72.563 179.974 73.250 179.942 C 73.938 179.911 76.120 179.713 78.100 179.504 C 81.451 179.149 81.667 179.291 81.233 181.561 C 80.977 182.903 81.227 184.000 81.790 184.000 C 82.352 184.000 82.577 183.100 82.290 182.000 C 81.908 180.541 82.271 179.981 83.633 179.930 C 85.364 179.865 85.354 179.797 83.500 179.000 C 81.641 178.201 81.677 178.121 84.000 177.870 C 85.375 177.722 83.876 177.578 80.670 177.550 C 77.463 177.523 74.613 177.725 74.336 178.000 "/></g>
<g fill="#AEAFAFFF" stroke="#AEAFAFFF">
<path d="M 102.500 223.917 C 105.777 227.679 111.787 230.263 115.595 229.548 C 117.429 229.204 119.238 228.425 119.614 227.816 C 120.075 227.070 119.410 226.880 117.571 227.231 C 113.802 227.952 107.307 226.344 103.600 223.772 L 100.500 221.622 102.500 223.917 "/></g>
<g fill="#AEAFAFFF" stroke="#AEAFAFFF">
<path d="M 86.195 177.571 C 76.940 179.613 77.111 179.372 79.150 187.500 C 80.483 192.818 80.783 193.418 80.399 190.000 C 80.121 187.525 79.665 184.304 79.387 182.842 C 78.939 180.485 79.255 180.113 82.191 179.545 C 89.929 178.048 95.395 176.588 94.000 176.391 C 93.175 176.275 89.663 176.805 86.195 177.571 "/></g>
<g fill="#91816DFF" stroke="#91816DFF">
<path d="M 199.056 195.750 C 199.025 196.438 199.450 197.000 200.000 197.000 C 200.550 197.000 201.000 197.638 201.000 198.417 C 201.000 199.196 201.437 199.983 201.971 200.167 C 202.505 200.350 203.147 201.625 203.397 203.000 C 203.795 205.188 204.431 206.732 204.118 204.750 C 203.941 203.625 205.447 203.847 206.736 205.136 C 207.583 205.983 208.268 205.875 209.436 204.707 C 210.296 203.847 211.000 202.716 211.000 202.194 C 211.000 201.672 211.631 200.721 212.403 200.081 C 213.480 199.187 213.926 199.216 214.324 200.208 C 214.663 201.054 214.869 200.916 214.921 199.809 C 215.080 196.411 213.006 197.030 210.401 201.157 L 207.730 205.388 205.615 202.855 C 204.452 201.462 202.513 199.012 201.306 197.411 C 200.099 195.810 199.086 195.063 199.056 195.750 "/></g>
<g fill="#5A4B38FF" stroke="#5A4B38FF">
<path d="M 35.440 148.466 C 34.696 152.436 35.540 157.000 37.019 157.000 C 38.280 157.000 38.309 146.309 37.051 145.531 C 36.528 145.208 35.804 146.529 35.440 148.466 "/></g>
<g fill="#91816DFF" stroke="#91816DFF">
<path d="M 88.515 240.976 C 88.139 241.584 86.970 241.808 85.916 241.473 C 84.768 241.109 84.000 241.338 84.000 242.044 C 84.000 242.849 85.108 243.015 87.500 242.566 C 89.687 242.156 91.000 242.302 91.000 242.955 C 91.000 243.583 93.816 244.000 98.059 244.000 C 102.518 244.000 104.890 243.631 104.499 242.998 C 104.127 242.396 101.705 242.252 98.423 242.638 C 94.056 243.151 92.590 242.939 91.082 241.575 C 89.795 240.409 88.982 240.220 88.515 240.976 "/></g>
<g fill="#91816DFF" stroke="#91816DFF">
<path d="M 26.194 110.250 L 26.387 121.500 27.000 111.500 C 27.337 106.000 27.700 102.288 27.806 103.250 C 27.913 104.213 28.411 105.000 28.913 105.000 C 29.415 105.000 29.317 103.650 28.694 102.000 C 28.071 100.350 27.210 99.000 26.781 99.000 C 26.351 99.000 26.087 104.063 26.194 110.250 "/></g>
<g fill="#5A4B38FF" stroke="#5A4B38FF">
<path d="M 60.162 97.500 C 60.128 98.600 60.956 104.900 62.003 111.500 C 63.335 119.900 63.740 121.400 63.353 116.500 C 62.762 109.021 60.266 94.160 60.162 97.500 "/></g>
<g fill="#A2C5E7FF" stroke="#A2C5E7FF">
<path d="M 71.368 145.671 C 72.059 150.712 72.416 151.479 73.698 150.687 C 74.154 150.405 74.364 148.109 74.163 145.587 C 73.901 142.288 73.368 141.000 72.263 141.000 C 71.011 141.000 70.846 141.860 71.368 145.671 "/></g>
<g fill="#91816DFF" stroke="#91816DFF">
<path d="M 182.949 230.385 C 182.669 230.665 181.103 231.138 179.470 231.437 C 177.836 231.735 175.375 232.217 174.000 232.508 C 172.625 232.798 169.925 233.296 168.000 233.613 C 164.010 234.271 162.742 235.000 165.583 235.001 C 169.639 235.002 184.056 231.667 183.765 230.794 C 183.596 230.288 183.229 230.104 182.949 230.385 "/></g>
<g fill="#91816DFF" stroke="#91816DFF">
<path d="M 213.984 209.000 C 213.595 211.023 213.270 212.398 213.039 213.000 C 212.933 213.275 212.686 214.355 212.490 215.400 C 212.294 216.445 211.766 217.570 211.316 217.900 C 210.867 218.230 210.013 219.400 209.418 220.500 C 208.823 221.600 207.359 222.945 206.164 223.489 C 204.970 224.033 204.124 224.871 204.284 225.353 C 204.445 225.834 205.986 225.041 207.710 223.591 C 211.515 220.389 215.309 212.905 214.710 209.782 C 214.461 208.484 214.148 208.147 213.984 209.000 "/></g>
<g fill="#AEAFAFFF" stroke="#AEAFAFFF">
<path d="M 185.150 69.189 C 185.043 70.387 183.766 71.036 180.750 71.425 C 171.919 72.564 171.694 72.731 178.816 72.864 L 186.133 73.000 185.716 70.250 C 185.487 68.738 185.232 68.260 185.150 69.189 "/></g>
<g fill="#5A4B38FF" stroke="#5A4B38FF">
<path d="M 52.136 55.750 C 52.061 56.438 51.122 57.000 50.050 57.000 C 48.977 57.000 47.635 57.788 47.068 58.750 C 46.168 60.276 45.908 60.308 45.034 59.000 C 44.173 57.713 44.028 57.749 44.015 59.250 C 43.997 61.295 44.272 61.330 49.311 59.931 C 52.474 59.052 53.050 58.500 52.697 56.686 C 52.464 55.484 52.211 55.063 52.136 55.750 "/></g>
<g fill="#91816DFF" stroke="#91816DFF">
<path d="M 27.058 131.083 C 27.089 134.613 27.496 139.300 27.961 141.500 C 28.525 144.163 28.627 142.157 28.266 135.500 C 27.646 124.055 26.972 121.593 27.058 131.083 "/></g>
<g fill="#6288AAFF" stroke="#6288AAFF">
<path d="M 226.942 133.572 C 225.599 135.007 222.349 137.828 219.720 139.841 C 217.091 141.853 216.057 142.921 217.422 142.214 C 221.332 140.189 231.446 131.649 230.362 131.287 C 229.825 131.108 228.286 132.136 226.942 133.572 "/></g>
<g fill="#A2C5E7FF" stroke="#A2C5E7FF">
<path d="M 20.058 125.083 C 20.089 128.613 20.485 133.300 20.937 135.500 C 21.471 138.098 21.577 135.994 21.240 129.500 C 20.648 118.078 19.972 115.554 20.058 125.083 "/></g>
<g fill="#A2C5E7FF" stroke="#A2C5E7FF">
<path d="M 65.326 75.408 C 65.697 76.374 66.064 78.814 66.142 80.832 L 66.284 84.500 66.892 80.500 C 67.443 76.875 67.828 76.442 71.000 75.882 L 74.500 75.263 71.332 75.132 C 69.589 75.059 67.374 74.697 66.408 74.326 C 65.031 73.798 64.798 74.031 65.326 75.408 "/></g>
<g fill="#91816DFF" stroke="#91816DFF">
<path d="M 230.673 127.490 C 229.668 128.961 227.193 132.040 225.173 134.332 C 223.153 136.625 222.357 137.825 223.404 137.000 C 224.451 136.175 225.463 135.613 225.654 135.750 C 225.844 135.888 225.691 136.000 225.313 136.000 C 224.935 136.000 225.904 134.666 227.466 133.036 C 229.028 131.405 230.682 130.303 231.142 130.587 C 231.601 130.872 231.707 130.400 231.377 129.541 C 230.926 128.364 231.238 128.127 232.639 128.583 C 233.963 129.014 234.124 128.919 233.197 128.253 C 232.481 127.738 232.031 126.754 232.197 126.066 C 232.364 125.378 231.678 126.019 230.673 127.490 "/></g>
<g fill="#5A4B38FF" stroke="#5A4B38FF">
<path d="M 231.033 100.226 C 231.015 101.175 231.898 103.425 232.996 105.226 L 234.993 108.500 234.996 105.861 C 235.001 102.819 231.090 97.259 231.033 100.226 "/></g>
<g fill="#F5F5F5FF" stroke="#F5F5F5FF">
<path d="M 61.333 185.973 C 63.479 193.260 64.839 195.024 63.166 188.351 C 62.635 186.233 61.922 183.263 61.581 181.750 C 61.241 180.238 60.583 179.000 60.121 179.000 C 59.658 179.000 60.203 182.138 61.333 185.973 "/></g>
<g fill="#6288AAFF" stroke="#6288AAFF">
<path d="M 232.000 179.850 C 230.625 181.142 227.025 183.483 224.000 185.051 C 220.975 186.620 218.855 187.925 219.290 187.952 C 221.732 188.101 235.402 179.414 234.785 178.105 C 234.628 177.772 233.375 178.557 232.000 179.850 "/></g>
<g fill="#6288AAFF" stroke="#6288AAFF">
<path d="M 57.019 90.050 C 57.030 90.848 57.702 93.750 58.512 96.500 L 59.985 101.500 59.431 96.000 C 59.126 92.975 58.454 90.073 57.938 89.550 C 57.349 88.953 57.007 89.139 57.019 90.050 "/></g>
<g fill="#A2C5E7FF" stroke="#A2C5E7FF">
<path d="M 19.672 100.891 C 19.302 102.738 19.057 106.331 19.126 108.875 C 19.239 112.981 19.353 112.720 20.144 106.552 C 21.098 99.111 20.783 95.335 19.672 100.891 "/></g>
<g fill="#5A4B38FF" stroke="#5A4B38FF">
<path d="M 113.971 140.032 C 113.162 140.539 111.600 140.718 110.500 140.429 L 108.500 139.905 110.500 141.130 C 111.600 141.803 112.996 143.021 113.602 143.835 C 114.516 145.063 114.823 144.841 115.401 142.540 C 116.223 139.262 115.953 138.788 113.971 140.032 "/></g>
<g fill="#91816DFF" stroke="#91816DFF">
<path d="M 97.041 218.583 C 97.018 219.179 97.338 220.004 97.750 220.417 C 98.163 220.829 98.500 221.579 98.500 222.083 C 98.500 222.588 98.950 223.032 99.500 223.071 C 100.050 223.110 101.253 223.824 102.174 224.658 C 103.685 226.025 103.814 225.993 103.501 224.336 C 103.309 223.326 103.119 222.933 103.077 223.462 C 103.034 223.991 101.668 222.866 100.041 220.962 C 98.413 219.058 97.063 217.988 97.041 218.583 "/></g>
<g fill="#5A4B38FF" stroke="#5A4B38FF">
<path d="M 65.208 135.000 C 65.175 136.925 65.509 140.525 65.949 143.000 C 67.031 149.079 67.116 143.369 66.046 136.500 C 65.409 132.411 65.256 132.138 65.208 135.000 "/></g>
<g fill="#91816DFF" stroke="#91816DFF">
<path d="M 136.500 238.651 C 135.400 239.446 133.762 239.904 132.861 239.670 C 131.959 239.437 130.609 239.633 129.861 240.107 C 128.936 240.693 129.461 240.936 131.500 240.866 C 134.818 240.752 141.232 239.306 139.250 239.118 C 138.563 239.053 138.113 238.596 138.250 238.103 C 138.388 237.610 137.600 237.856 136.500 238.651 "/></g>
<g fill="#91816DFF" stroke="#91816DFF">
<path d="M 75.100 232.250 C 75.184 235.860 75.320 236.124 76.000 234.000 C 77.153 230.401 77.153 228.000 76.000 228.000 C 75.450 228.000 75.045 229.913 75.100 232.250 "/></g>
<g fill="#91816DFF" stroke="#91816DFF">
<path d="M 74.750 219.332 C 73.665 221.983 73.830 225.000 75.060 225.000 C 75.674 225.000 75.990 223.421 75.810 221.250 C 75.579 218.452 75.310 217.965 74.750 219.332 "/></g>
<g fill="#F5F5F5FF" stroke="#F5F5F5FF">
<path d="M 65.689 198.919 C 66.117 200.556 70.759 203.574 71.583 202.751 C 71.761 202.572 70.400 201.223 68.558 199.754 C 65.790 197.545 65.292 197.400 65.689 198.919 "/></g>
<g fill="#5A4B38FF" stroke="#5A4B38FF">
<path d="M 66.070 149.680 C 66.024 151.117 65.232 152.009 63.750 152.294 C 62.123 152.608 62.400 152.765 64.750 152.864 C 68.177 153.007 68.378 152.707 67.000 149.500 C 66.170 147.568 66.138 147.574 66.070 149.680 "/></g>
<g fill="#5A4B38FF" stroke="#5A4B38FF">
<path d="M 96.848 136.097 C 95.306 137.690 95.356 137.835 97.598 138.263 C 99.986 138.720 100.681 137.522 99.235 135.445 C 98.752 134.751 97.934 134.975 96.848 136.097 "/></g>
<g fill="#5A4B38FF" stroke="#5A4B38FF">
<path d="M 171.974 116.951 C 172.589 118.101 172.769 119.595 172.374 120.271 C 171.979 120.947 172.655 120.624 173.875 119.553 L 176.094 117.605 173.474 116.233 C 170.965 114.918 170.902 114.948 171.974 116.951 "/></g>
<g fill="#BBD7EFFF" stroke="#BBD7EFFF">
<path d="M 44.634 136.000 C 44.971 137.375 45.862 139.850 46.613 141.500 C 47.710 143.909 47.859 144.008 47.366 142.000 C 47.029 140.625 46.138 138.150 45.387 136.500 C 44.290 134.091 44.141 133.992 44.634 136.000 "/></g>
<g fill="#BBD7EFFF" stroke="#BBD7EFFF">
<path d="M 145.116 37.527 C 145.052 38.643 144.279 40.584 143.398 41.842 C 142.517 43.100 142.034 44.367 142.324 44.658 C 143.209 45.543 146.152 38.982 145.676 37.183 C 145.328 35.865 145.207 35.940 145.116 37.527 "/></g>
<g fill="#6288AAFF" stroke="#6288AAFF">
<path d="M 52.500 59.007 C 51.213 59.565 52.283 59.668 55.500 59.296 C 58.250 58.978 60.688 58.557 60.917 58.359 C 61.784 57.612 54.411 58.179 52.500 59.007 "/></g>
<g fill="#5A4B38FF" stroke="#5A4B38FF">
<path d="M 167.548 144.833 C 165.979 145.148 166.324 145.579 169.305 147.029 L 173.014 148.833 171.257 146.638 C 170.213 145.333 168.708 144.601 167.548 144.833 "/></g>
<g fill="#5A4B38FF" stroke="#5A4B38FF">
<path d="M 163.000 131.965 C 164.375 133.021 165.455 133.461 165.400 132.943 C 165.345 132.424 165.233 131.550 165.150 131.000 C 165.068 130.450 163.988 130.010 162.750 130.022 C 160.501 130.044 160.502 130.046 163.000 131.965 "/></g>
<g fill="#91816DFF" stroke="#91816DFF">
<path d="M 142.500 76.000 C 140.668 76.787 140.710 76.864 143.000 76.914 C 144.375 76.945 146.175 76.533 147.000 76.000 C 148.238 75.200 148.151 75.040 146.500 75.086 C 145.400 75.116 143.600 75.527 142.500 76.000 "/></g>
<g fill="#91816DFF" stroke="#91816DFF">
<path d="M 170.000 72.948 C 170.825 73.510 172.813 73.976 174.417 73.985 C 178.259 74.005 177.461 73.426 172.500 72.596 C 169.634 72.116 168.925 72.215 170.000 72.948 "/></g>
<g fill="#AEAFAFFF" stroke="#AEAFAFFF">
<path d="M 54.060 54.500 C 53.867 57.250 54.031 58.755 54.425 57.845 C 54.819 56.935 54.977 54.685 54.776 52.845 C 54.482 50.148 54.344 50.469 54.060 54.500 "/></g>
<g fill="#6288AAFF" stroke="#6288AAFF">
<path d="M 62.083 178.356 C 63.208 179.318 69.000 179.836 69.000 178.975 C 69.000 178.439 67.350 178.000 65.333 178.000 C 63.317 178.000 61.854 178.160 62.083 178.356 "/></g>
<g fill="#6288AAFF" stroke="#6288AAFF">
<path d="M 171.923 23.077 C 173.615 24.769 175.000 25.748 175.000 25.251 C 175.000 24.182 170.707 20.000 169.609 20.000 C 169.189 20.000 170.231 21.385 171.923 23.077 "/></g>
<g fill="#5A4B38FF" stroke="#5A4B38FF">
<path d="M 73.500 29.911 C 75.150 30.958 76.950 32.289 77.500 32.868 C 78.050 33.447 77.297 32.589 75.827 30.960 C 74.357 29.332 72.557 28.002 71.827 28.004 C 71.097 28.006 71.850 28.864 73.500 29.911 "/></g>
<g fill="#A2C5E7FF" stroke="#A2C5E7FF">
<path d="M 21.100 141.191 C 21.155 141.911 21.560 143.625 22.000 145.000 C 22.765 147.387 22.805 147.356 22.900 144.309 C 22.955 142.554 22.550 140.840 22.000 140.500 C 21.450 140.160 21.045 140.471 21.100 141.191 "/></g>
<g fill="#91816DFF" stroke="#91816DFF">
<path d="M 112.000 242.024 C 109.818 242.744 109.969 242.834 113.185 242.725 C 115.212 242.656 116.648 242.240 116.376 241.800 C 115.807 240.879 115.409 240.899 112.000 242.024 "/></g>
<g fill="#91816DFF" stroke="#91816DFF">
<path d="M 72.070 199.191 C 72.109 199.911 72.527 201.400 73.000 202.500 C 73.767 204.286 73.867 204.212 73.930 201.809 C 73.968 200.329 73.550 198.840 73.000 198.500 C 72.450 198.160 72.032 198.471 72.070 199.191 "/></g>
<g fill="#6288AAFF" stroke="#6288AAFF">
<path d="M 213.084 58.500 C 213.084 59.050 213.946 61.075 215.000 63.000 C 216.054 64.925 216.916 66.050 216.916 65.500 C 216.916 64.950 216.054 62.925 215.000 61.000 C 213.946 59.075 213.084 57.950 213.084 58.500 "/></g>
<g fill="#6288AAFF" stroke="#6288AAFF">
<path d="M 206.377 50.524 C 208.509 52.624 209.765 53.429 209.168 52.313 C 208.570 51.197 206.825 49.478 205.291 48.494 C 203.128 47.108 203.372 47.564 206.377 50.524 "/></g>
<g fill="#5A4B38FF" stroke="#5A4B38FF">
<path d="M 87.500 51.165 C 89.016 53.660 89.004 53.860 87.309 54.299 C 85.743 54.705 85.727 54.784 87.191 54.884 C 89.862 55.067 90.168 53.413 87.935 50.854 L 85.881 48.500 87.500 51.165 "/></g>
<g fill="#91816DFF" stroke="#91816DFF">
<path d="M 122.000 241.000 C 120.835 241.753 121.128 241.973 123.309 241.985 C 124.930 241.994 125.857 241.577 125.500 241.000 C 124.733 239.758 123.921 239.758 122.000 241.000 "/></g>
<g fill="#91816DFF" stroke="#91816DFF">
<path d="M 151.500 236.000 C 149.728 236.762 149.813 236.867 152.250 236.930 C 153.763 236.968 155.000 236.550 155.000 236.000 C 155.000 234.826 154.231 234.826 151.500 236.000 "/></g>
<g fill="#91816DFF" stroke="#91816DFF">
<path d="M 159.500 235.099 L 156.500 235.763 159.833 235.882 C 161.667 235.947 163.017 235.648 162.833 235.218 C 162.650 234.788 161.150 234.734 159.500 235.099 "/></g>
<g fill="#91816DFF" stroke="#91816DFF">
<path d="M 199.500 226.706 C 196.948 227.889 196.873 228.017 199.000 227.562 C 200.375 227.268 201.875 227.021 202.333 227.014 C 202.792 227.006 203.017 226.621 202.833 226.158 C 202.650 225.694 201.150 225.941 199.500 226.706 "/></g>
<g fill="#91816DFF" stroke="#91816DFF">
<path d="M 82.170 204.000 C 82.186 204.825 82.560 206.625 83.000 208.000 C 83.644 210.010 83.806 210.108 83.830 208.500 C 83.846 207.400 83.473 205.600 83.000 204.500 C 82.473 203.275 82.152 203.081 82.170 204.000 "/></g>
<g fill="#AEAFAFFF" stroke="#AEAFAFFF">
<path d="M 58.000 178.000 C 58.000 178.550 58.927 179.000 60.059 179.000 C 61.191 179.000 61.840 178.550 61.500 178.000 C 61.160 177.450 60.234 177.000 59.441 177.000 C 58.648 177.000 58.000 177.450 58.000 178.000 "/></g>
<g fill="#5A4B38FF" stroke="#5A4B38FF">
<path d="M 118.750 157.823 C 117.788 158.001 117.007 158.901 117.015 159.823 C 117.029 161.270 117.268 161.226 118.765 159.500 C 120.412 157.601 120.412 157.516 118.750 157.823 "/></g>
<g fill="#91816DFF" stroke="#91816DFF">
<path d="M 73.610 209.500 C 74.433 213.177 75.005 213.975 74.985 211.417 C 74.976 210.363 74.513 208.825 73.954 208.000 C 73.213 206.905 73.120 207.309 73.610 209.500 "/></g>
<g fill="#91816DFF" stroke="#91816DFF">
<path d="M 81.015 199.750 C 81.007 200.988 81.450 202.000 82.000 202.000 C 83.253 202.000 83.253 200.939 82.000 199.000 C 81.216 197.787 81.028 197.931 81.015 199.750 "/></g>
<g fill="#91816DFF" stroke="#91816DFF">
<path d="M 71.843 190.091 C 71.481 190.966 71.610 192.316 72.129 193.091 C 72.806 194.100 72.992 193.649 72.787 191.500 C 72.590 189.438 72.294 188.997 71.843 190.091 "/></g>
<g fill="#91816DFF" stroke="#91816DFF">
<path d="M 58.000 175.883 C 58.000 176.369 58.926 177.009 60.057 177.305 C 61.745 177.746 61.903 177.588 60.935 176.421 C 59.614 174.830 58.000 174.535 58.000 175.883 "/></g>
<g fill="#91816DFF" stroke="#91816DFF">
<path d="M 191.150 101.000 C 191.068 101.550 190.100 102.080 189.000 102.179 C 187.557 102.307 187.627 102.377 189.250 102.429 C 190.488 102.468 191.455 101.938 191.400 101.250 C 191.345 100.563 191.233 100.450 191.150 101.000 "/></g>
<g fill="#91816DFF" stroke="#91816DFF">
<path d="M 120.000 79.000 C 120.000 80.253 121.061 80.253 123.000 79.000 C 124.213 78.216 124.069 78.028 122.250 78.015 C 121.013 78.007 120.000 78.450 120.000 79.000 "/></g>
<g fill="#91816DFF" stroke="#91816DFF">
<path d="M 135.000 77.046 C 133.905 77.787 134.309 77.880 136.500 77.390 C 140.177 76.567 140.975 75.995 138.417 76.015 C 137.363 76.024 135.825 76.487 135.000 77.046 "/></g>
<g fill="#91816DFF" stroke="#91816DFF">
<path d="M 152.000 75.000 C 150.667 75.862 150.667 75.969 152.000 75.969 C 152.825 75.969 154.175 75.533 155.000 75.000 C 156.333 74.138 156.333 74.031 155.000 74.031 C 154.175 74.031 152.825 74.467 152.000 75.000 "/></g>
<g fill="#91816DFF" stroke="#91816DFF">
<path d="M 161.000 74.000 C 161.000 74.550 161.675 75.000 162.500 75.000 C 163.325 75.000 164.000 74.550 164.000 74.000 C 164.000 73.450 163.325 73.000 162.500 73.000 C 161.675 73.000 161.000 73.450 161.000 74.000 "/></g>
<g fill="#BBD7EFFF" stroke="#BBD7EFFF">
<path d="M 60.141 184.000 C 60.141 184.825 60.527 186.400 61.000 187.500 C 61.542 188.761 61.859 188.945 61.859 188.000 C 61.859 187.175 61.473 185.600 61.000 184.500 C 60.458 183.239 60.141 183.055 60.141 184.000 "/></g>
<g fill="#6288AAFF" stroke="#6288AAFF">
<path d="M 145.000 21.500 C 144.306 22.337 144.197 23.000 144.755 23.000 C 145.305 23.000 146.315 22.325 147.000 21.500 C 147.694 20.663 147.803 20.000 147.245 20.000 C 146.695 20.000 145.685 20.675 145.000 21.500 "/></g>
<g fill="#5A4B38FF" stroke="#5A4B38FF">
<path d="M 59.028 92.272 C 59.751 95.312 59.801 95.343 59.898 92.809 C 59.954 91.329 59.609 89.876 59.131 89.581 C 58.648 89.282 58.602 90.479 59.028 92.272 "/></g>
<g fill="#5A4B38FF" stroke="#5A4B38FF">
<path d="M 60.000 29.046 C 58.905 29.787 59.309 29.880 61.500 29.390 C 65.177 28.567 65.975 27.995 63.417 28.015 C 62.363 28.024 60.825 28.487 60.000 29.046 "/></g>
<g fill="#91816DFF" stroke="#91816DFF">
<path d="M 145.000 237.000 C 145.000 237.550 145.702 238.000 146.559 238.000 C 147.416 238.000 147.840 237.550 147.500 237.000 C 147.160 236.450 146.459 236.000 145.941 236.000 C 145.423 236.000 145.000 236.450 145.000 237.000 "/></g>
<g fill="#91816DFF" stroke="#91816DFF">
<path d="M 80.000 195.559 C 80.000 196.416 80.450 196.840 81.000 196.500 C 81.550 196.160 82.000 195.459 82.000 194.941 C 82.000 194.423 81.550 194.000 81.000 194.000 C 80.450 194.000 80.000 194.702 80.000 195.559 "/></g>
<g fill="#91816DFF" stroke="#91816DFF">
<path d="M 79.636 189.825 C 79.186 191.104 79.083 192.417 79.409 192.742 C 79.945 193.278 80.150 192.433 80.377 188.750 C 80.419 188.063 80.086 188.546 79.636 189.825 "/></g>
<g fill="#91816DFF" stroke="#91816DFF">
<path d="M 126.441 132.552 C 124.679 133.962 124.777 133.965 127.500 132.592 C 129.150 131.761 130.024 131.062 129.441 131.040 C 128.859 131.018 127.509 131.699 126.441 132.552 "/></g>
<g fill="#91816DFF" stroke="#91816DFF">
<path d="M 63.823 121.750 C 63.473 122.988 63.626 124.000 64.163 124.000 C 64.700 124.000 64.986 122.988 64.799 121.750 L 64.459 119.500 63.823 121.750 "/></g>
<g fill="#91816DFF" stroke="#91816DFF">
<path d="M 62.951 114.500 C 62.734 116.550 62.879 116.956 63.411 115.783 C 63.839 114.839 63.982 113.489 63.728 112.783 C 63.475 112.077 63.125 112.850 62.951 114.500 "/></g>
<g fill="#91816DFF" stroke="#91816DFF">
<path d="M 199.000 88.000 L 201.500 90.500 199.000 88.000 L 196.500 85.500 199.000 88.000 "/></g>
<g fill="#91816DFF" stroke="#91816DFF">
<path d="M 128.000 77.968 C 128.000 78.573 128.844 78.596 130.250 78.031 L 132.500 77.127 130.250 77.063 C 129.013 77.029 128.000 77.435 128.000 77.968 "/></g>
<g fill="#AEAFAFFF" stroke="#AEAFAFFF">
<path d="M 231.372 128.620 C 230.534 131.224 230.552 131.242 231.831 129.079 C 232.563 127.841 232.955 126.622 232.703 126.369 C 232.450 126.117 231.851 127.130 231.372 128.620 "/></g>
<g fill="#6288AAFF" stroke="#6288AAFF">
<path d="M 49.000 216.000 C 49.825 216.533 51.175 216.945 52.000 216.914 C 52.989 216.878 52.819 216.567 51.500 216.000 C 48.751 214.819 47.172 214.819 49.000 216.000 "/></g>
<g fill="#6288AAFF" stroke="#6288AAFF">
<path d="M 164.441 17.448 C 165.509 18.301 166.859 18.982 167.441 18.960 C 168.024 18.938 167.150 18.239 165.500 17.408 C 162.777 16.035 162.679 16.038 164.441 17.448 "/></g>
<g fill="#5A4B38FF" stroke="#5A4B38FF">
<path d="M 55.500 32.410 L 53.500 34.567 55.500 32.410 L 57.500 30.253 55.500 32.410 "/></g>
<g fill="#91816DFF" stroke="#91816DFF">
<path d="M 80.554 242.913 C 80.167 243.538 80.629 244.000 81.641 244.000 C 82.908 244.000 83.096 243.696 82.313 242.913 C 81.530 242.130 81.038 242.130 80.554 242.913 "/></g>
<g fill="#91816DFF" stroke="#91816DFF">
<path d="M 141.554 237.913 C 141.167 238.538 141.629 239.000 142.641 239.000 C 143.908 239.000 144.096 238.696 143.313 237.913 C 142.530 237.130 142.038 237.130 141.554 237.913 "/></g>
<g fill="#91816DFF" stroke="#91816DFF">
<path d="M 186.000 230.017 C 184.735 230.820 184.788 230.972 186.333 230.985 C 187.342 230.993 188.017 230.564 187.833 230.032 C 187.621 229.416 186.955 229.410 186.000 230.017 "/></g>
<g fill="#91816DFF" stroke="#91816DFF">
<path d="M 190.000 229.017 C 188.735 229.820 188.788 229.972 190.333 229.985 C 191.342 229.993 192.017 229.564 191.833 229.032 C 191.621 228.416 190.955 228.410 190.000 229.017 "/></g>
<g fill="#91816DFF" stroke="#91816DFF">
<path d="M 194.000 228.017 C 192.735 228.820 192.788 228.972 194.333 228.985 C 195.342 228.993 196.017 228.564 195.833 228.032 C 195.621 227.416 194.955 227.410 194.000 228.017 "/></g>
<g fill="#91816DFF" stroke="#91816DFF">
<path d="M 100.250 172.793 C 99.563 172.998 99.006 173.692 99.014 174.333 C 99.022 175.026 99.530 174.874 100.264 173.959 C 101.247 172.733 101.244 172.495 100.250 172.793 "/></g>
<g fill="#91816DFF" stroke="#91816DFF">
<path d="M 165.508 144.987 C 165.113 145.626 165.708 145.648 167.199 145.050 C 168.833 144.395 169.009 144.108 167.809 144.063 C 166.879 144.029 165.844 144.444 165.508 144.987 "/></g>
<g fill="#91816DFF" stroke="#91816DFF">
<path d="M 122.000 145.888 L 120.500 147.563 122.000 145.888 L 123.500 144.212 122.000 145.888 "/></g>
<g fill="#91816DFF" stroke="#91816DFF">
<path d="M 112.000 140.000 C 111.175 140.533 110.950 140.969 111.500 140.969 C 112.050 140.969 113.175 140.533 114.000 140.000 C 114.825 139.467 115.050 139.031 114.500 139.031 C 113.950 139.031 112.825 139.467 112.000 140.000 "/></g>
<g fill="#91816DFF" stroke="#91816DFF">
<path d="M 117.250 137.793 C 116.563 137.998 116.006 138.692 116.014 139.333 C 116.022 140.026 116.530 139.874 117.264 138.959 C 118.247 137.733 118.244 137.495 117.250 137.793 "/></g>
<g fill="#91816DFF" stroke="#91816DFF">
<path d="M 171.660 115.750 C 171.232 116.438 171.232 117.563 171.660 118.250 C 172.156 119.047 172.437 118.595 172.437 117.000 C 172.437 115.405 172.156 114.953 171.660 115.750 "/></g>
<g fill="#91816DFF" stroke="#91816DFF">
<path d="M 103.000 106.000 L 105.000 108.000 103.000 106.000 L 101.000 104.000 103.000 106.000 "/></g>
<g fill="#91816DFF" stroke="#91816DFF">
<path d="M 105.801 81.050 C 107.292 81.648 107.887 81.626 107.492 80.987 C 107.156 80.444 106.121 80.029 105.191 80.063 C 103.991 80.108 104.167 80.395 105.801 81.050 "/></g>
<g fill="#91816DFF" stroke="#91816DFF">
<path d="M 113.250 80.080 C 114.453 80.781 115.000 80.771 115.000 80.050 C 115.000 79.472 114.213 79.014 113.250 79.030 C 111.583 79.059 111.583 79.109 113.250 80.080 "/></g>
<g fill="#AEAFAFFF" stroke="#AEAFAFFF">
<path d="M 208.000 221.888 L 206.500 223.563 208.000 221.888 L 209.500 220.212 208.000 221.888 "/></g>
<g fill="#AEAFAFFF" stroke="#AEAFAFFF">
<path d="M 89.000 139.888 L 87.500 141.563 89.000 139.888 L 90.500 138.212 89.000 139.888 "/></g>
<g fill="#AEAFAFFF" stroke="#AEAFAFFF">
<path d="M 219.000 107.888 L 217.500 109.563 219.000 107.888 L 220.500 106.212 219.000 107.888 "/></g>
<g fill="#6288AAFF" stroke="#6288AAFF">
<path d="M 153.508 16.987 C 153.113 17.626 153.708 17.648 155.199 17.050 C 156.833 16.395 157.009 16.108 155.809 16.063 C 154.879 16.029 153.844 16.444 153.508 16.987 "/></g>
<g fill="#5A4B38FF" stroke="#5A4B38FF">
<path d="M 114.000 165.888 L 112.500 167.563 114.000 165.888 L 115.500 164.212 114.000 165.888 "/></g>
<g fill="#5A4B38FF" stroke="#5A4B38FF">
<path d="M 84.150 46.129 C 85.002 47.626 85.395 47.868 85.215 46.787 C 85.058 45.845 84.450 44.778 83.865 44.417 C 83.279 44.055 83.408 44.825 84.150 46.129 "/></g>
<g fill="#5A4B38FF" stroke="#5A4B38FF">
<path d="M 49.000 43.000 C 48.835 43.550 48.700 44.450 48.700 45.000 C 48.700 45.667 48.800 45.667 49.000 45.000 C 49.165 44.450 49.300 43.550 49.300 43.000 C 49.300 42.333 49.200 42.333 49.000 43.000 "/></g>
<g fill="#A2C5E7FF" stroke="#A2C5E7FF">
<path d="M 46.250 214.080 C 47.453 214.781 48.000 214.771 48.000 214.050 C 48.000 213.472 47.213 213.014 46.250 213.030 C 44.583 213.059 44.583 213.109 46.250 214.080 "/></g>
<g fill="#4D769B99" stroke="#4D769B99">
<path d="M 40.000 211.000 L 42.000 213.000 40.000 211.000 L 38.000 209.000 40.000 211.000 "/></g>
<g fill="#4D769B99" stroke="#4D769B99">
<path d="M 30.000 68.888 L 28.500 70.563 30.000 68.888 L 31.500 67.212 30.000 68.888 "/></g>
<g fill="#91816DFF" stroke="#91816DFF">
<path d="M 76.422 243.874 C 76.805 244.493 77.654 244.986 78.309 244.970 C 78.964 244.953 78.651 244.446 77.613 243.843 C 76.224 243.037 75.910 243.045 76.422 243.874 "/></g>
<g fill="#91816DFF" stroke="#91816DFF">
<path d="M 40.030 193.691 C 40.014 194.346 40.507 195.195 41.126 195.578 C 41.955 196.090 41.963 195.776 41.157 194.387 C 40.554 193.349 40.047 193.036 40.030 193.691 "/></g>
<g fill="#91816DFF" stroke="#91816DFF">
<path d="M 126.378 142.378 L 125.500 143.256 126.378 142.378 L 127.256 141.500 126.378 142.378 "/></g>
<g fill="#91816DFF" stroke="#91816DFF">
<path d="M 96.695 135.352 C 96.275 136.448 96.413 136.863 97.064 136.460 C 97.637 136.106 97.939 135.318 97.736 134.709 C 97.533 134.100 97.065 134.389 96.695 135.352 "/></g>
<g fill="#91816DFF" stroke="#91816DFF">
<path d="M 35.750 129.666 C 35.338 130.033 35.030 130.821 35.066 131.417 C 35.102 132.013 35.439 131.712 35.816 130.750 C 36.192 129.787 36.163 129.300 35.750 129.666 "/></g>
<g fill="#AEAFAFFF" stroke="#AEAFAFFF">
<path d="M 206.500 205.500 L 208.000 207.000 206.500 205.500 L 205.000 204.000 206.500 205.500 "/></g>
<g fill="#AEAFAFFF" stroke="#AEAFAFFF">
<path d="M 114.378 166.378 L 113.500 167.256 114.378 166.378 L 115.256 165.500 114.378 166.378 "/></g>
<g fill="#AEAFAFFF" stroke="#AEAFAFFF">
<path d="M 164.000 145.200 C 164.000 146.133 164.267 146.133 165.200 145.200 C 166.133 144.267 166.133 144.000 165.200 144.000 C 164.540 144.000 164.000 144.540 164.000 145.200 "/></g>
<g fill="#AEAFAFFF" stroke="#AEAFAFFF">
<path d="M 59.695 33.352 C 59.275 34.448 59.413 34.863 60.064 34.460 C 60.637 34.106 60.939 33.318 60.736 32.709 C 60.533 32.100 60.065 32.389 59.695 33.352 "/></g>
<g fill="#BBD7EFFF" stroke="#BBD7EFFF">
<path d="M 139.378 46.378 L 138.500 47.256 139.378 46.378 L 140.256 45.500 139.378 46.378 "/></g>
<g fill="#6288AAFF" stroke="#6288AAFF">
<path d="M 142.695 25.352 C 142.275 26.448 142.413 26.863 143.064 26.460 C 143.637 26.106 143.939 25.318 143.736 24.709 C 143.533 24.100 143.065 24.389 142.695 25.352 "/></g>
<g fill="#5A4B38FF" stroke="#5A4B38FF">
<path d="M 43.624 150.799 C 43.212 151.466 43.390 152.000 44.024 152.000 C 44.653 152.000 44.987 151.460 44.766 150.799 C 44.455 149.865 44.202 149.865 43.624 150.799 "/></g>
<g fill="#5A4B38FF" stroke="#5A4B38FF">
<path d="M 192.422 120.874 C 192.805 121.493 193.654 121.986 194.309 121.970 C 194.964 121.953 194.651 121.446 193.613 120.843 C 192.224 120.037 191.910 120.045 192.422 120.874 "/></g>
<g fill="#4D769B99" stroke="#4D769B99">
<path d="M 210.500 53.500 L 212.000 55.000 210.500 53.500 L 209.000 52.000 210.500 53.500 "/></g>
<g fill="#4A759518" stroke="#4A759518">
<path d="M 238.000 155.200 C 238.000 156.133 238.267 156.133 239.200 155.200 C 240.133 154.267 240.133 154.000 239.200 154.000 C 238.540 154.000 238.000 154.540 238.000 155.200 "/></g>
<g fill="#4A759518" stroke="#4A759518">
<path d="M 236.000 141.200 C 236.000 142.133 236.267 142.133 237.200 141.200 C 238.133 140.267 238.133 140.000 237.200 140.000 C 236.540 140.000 236.000 140.540 236.000 141.200 "/></g>
<g fill="#4A759518" stroke="#4A759518">
<path d="M 235.000 136.200 C 235.000 137.133 235.267 137.133 236.200 136.200 C 237.133 135.267 237.133 135.000 236.200 135.000 C 235.540 135.000 235.000 135.540 235.000 136.200 "/></g>
<g fill="#4A759518" stroke="#4A759518">
<path d="M 234.000 131.200 C 234.000 132.133 234.267 132.133 235.200 131.200 C 236.133 130.267 236.133 130.000 235.200 130.000 C 234.540 130.000 234.000 130.540 234.000 131.200 "/></g>
<g fill="#4A759518" stroke="#4A759518">
<path d="M 129.422 49.126 C 128.910 49.955 129.224 49.963 130.613 49.157 C 131.651 48.554 131.964 48.047 131.309 48.030 C 130.654 48.014 129.805 48.507 129.422 49.126 "/></g>
</svg>
